<?xml version="1.0" encoding="UTF-8" standalone="no"?>
<!-- Created with Inkscape (http://www.inkscape.org/) -->

<svg
   xmlns:dc="http://purl.org/dc/elements/1.1/"
   xmlns:cc="http://creativecommons.org/ns#"
   xmlns:rdf="http://www.w3.org/1999/02/22-rdf-syntax-ns#"
   xmlns:svg="http://www.w3.org/2000/svg"
   xmlns="http://www.w3.org/2000/svg"
   xmlns:sodipodi="http://sodipodi.sourceforge.net/DTD/sodipodi-0.dtd"
   xmlns:inkscape="http://www.inkscape.org/namespaces/inkscape"
   width="1242"
   height="512"
   id="svg2"
   version="1.1"
   inkscape:version="0.48.4 r9939"
   sodipodi:docname="cloud_2.svg">
  <defs
     id="defs4" />
  <sodipodi:namedview
     id="base"
     pagecolor="#ffffff"
     bordercolor="#666666"
     borderopacity="1.0"
     inkscape:pageopacity="0.0"
     inkscape:pageshadow="2"
     inkscape:zoom="0.35"
     inkscape:cx="284.64048"
     inkscape:cy="217.27375"
     inkscape:document-units="px"
     inkscape:current-layer="layer1"
     showgrid="false"
     inkscape:window-width="948"
     inkscape:window-height="739"
     inkscape:window-x="252"
     inkscape:window-y="235"
     inkscape:window-maximized="0" />
  <metadata
     id="metadata7">
    <rdf:RDF>
      <cc:Work
         rdf:about="">
        <dc:format>image/svg+xml</dc:format>
        <dc:type
           rdf:resource="http://purl.org/dc/dcmitype/StillImage" />
        <dc:title></dc:title>
      </cc:Work>
    </rdf:RDF>
  </metadata>
  <g
     inkscape:label="Layer 1"
     inkscape:groupmode="layer"
     id="layer1"
     transform="translate(0,-540.36218)">
    <g
       id="g3905-4-4"
       transform="matrix(1.8056786,0,0,1.8056786,-84.17064,151.31201)">
      <path
         style="color:#000000;fill:#55d400;fill-opacity:1;fill-rule:nonzero;stroke:#092b00;stroke-width:14.44542885;stroke-linecap:square;stroke-linejoin:round;stroke-miterlimit:4;stroke-opacity:1;stroke-dasharray:none;stroke-dashoffset:0;marker:none;visibility:visible;display:inline;overflow:visible;enable-background:accumulate"
         d="M 407.15625 24.9375 C 398.81214 25.104315 391.60905 28.740634 386.4375 37.375 C 322.68771 143.81101 302.44092 41.108563 264.21875 93.9375 C 229.5001 141.924 266.27736 209.18143 273.375 223.875 C 202.00378 209.59302 129.56884 236.03986 136 300.59375 C 50.921637 345.53718 71.227863 320.12215 54.46875 336.5 C 40.059373 350.58157 85.469812 373 123.75 373 C 154.88176 365.23018 165.46064 373.36104 188.4375 387.71875 C 186.693 393.44472 179.70216 404.2034 185.78125 405.84375 C 211.31741 412.73427 189.18542 481.7761 218.59375 464.21875 C 264.42167 436.8586 266.01972 465.73493 273.96875 462.03125 C 290.06905 480.71168 321.3335 493.375 357.25 493.375 C 407.57824 493.375 448.69049 468.49651 451.84375 437.0625 C 461.95748 436.31851 471.85095 435.30163 481.5625 434.0625 C 499.17281 456.91015 540.61657 472.9375 588.90625 472.9375 C 616.29195 472.9375 641.46666 467.78635 661.34375 459.15625 C 663.84185 461.42362 665.64662 463.1132 667.96875 462.03125 C 684.06905 480.71168 715.3335 493.375 751.25 493.375 C 801.57824 493.375 842.69049 468.49651 845.84375 437.0625 C 855.95748 436.31851 865.85095 435.30163 875.5625 434.0625 C 893.17281 456.91015 934.61657 472.9375 982.90625 472.9375 C 1024.9391 472.9375 1061.7673 460.78006 1082.2188 442.5625 C 1091.7144 446.35896 1113.2153 460.1306 1114.1875 448.5625 C 1119.0854 390.28146 1274.7744 447.15029 1180.6875 400.375 C 1179.2315 399.65112 1180.498 397.1159 1180.2812 395.53125 C 1189.1662 386.81836 1196.8875 374.72884 1202 360.46875 C 1214.5036 325.5933 1210.0867 240.19185 1193.4062 257.0625 C 1180.9227 269.68849 1153.6941 301.17271 1137.625 301.90625 C 1137.8074 297.69378 1140.6828 292.41734 1137.9062 289.09375 C 1101.9123 246.00764 1103.0485 188.93589 1110.5938 165.03125 C 1117.9545 141.71127 1046.7467 198.75598 1041.8125 251.96875 C 1020.5682 234.31499 990.397 219.28724 954.0625 208.125 C 964.11294 194.77013 970.15625 177.92785 970.15625 159.59375 C 970.15625 116.27669 936.61482 81.15625 895.3125 81.15625 C 892.55826 81.15625 889.86458 81.320743 887.1875 81.625 C 861.76001 54.597837 802.50277 0.53503961 780.4375 37.375 C 716.68771 143.81101 696.44092 41.108563 658.21875 93.9375 C 629.27151 133.94703 649.99328 187.24113 661.8125 212.40625 C 659.97142 215.55527 658.25361 218.7647 656.6875 222.03125 C 636.84784 219.18724 617.25641 219.48245 599.59375 222.875 C 587.45933 217.41684 574.23832 212.47992 560.0625 208.125 C 570.11294 194.77013 576.15625 177.92785 576.15625 159.59375 C 576.15625 116.27669 542.61482 81.15625 501.3125 81.15625 C 498.55826 81.15625 495.86458 81.320743 493.1875 81.625 C 473.71958 60.932329 434.41366 24.392571 407.15625 24.9375 z "
         transform="matrix(0.55380841,0,0,0.55380841,46.614409,215.45926)"
         id="path3792-3-16" />
      <path
         style="color:#000000;fill:#338000;fill-opacity:1;fill-rule:nonzero;stroke:none;stroke-width:3.64852309;marker:none;visibility:visible;display:inline;overflow:visible;enable-background:accumulate"
         d="m 255.03757,299.51529 c -7.76642,-0.091 -25.42888,-2.25516 -31.78751,5.99457 -11.66716,17.9673 -10.3827,27.44777 2.40017,47.36583 -14.15609,-61.87798 75.07297,-12.78271 29.38734,-53.3604 z"
         id="path3792-0-7-0-3"
         inkscape:connector-curvature="0"
         sodipodi:nodetypes="cccc" />
      <path
         style="color:#000000;fill:#338000;fill-opacity:1;fill-rule:nonzero;stroke:none;stroke-width:3.64852309;marker:none;visibility:visible;display:inline;overflow:visible;enable-background:accumulate"
         d="m 299.23272,306.88649 c 0.12742,3.27685 -0.66887,10.76316 4.05466,13.3011 10.23754,4.60747 15.46893,3.90073 26.22884,-1.83685 -34.01248,7.04723 -8.81309,-31.4373 -30.2835,-11.46425 z"
         id="path3792-0-7-5-2-45"
         inkscape:connector-curvature="0"
         sodipodi:nodetypes="cccc" />
    </g>
    <g
       id="g3905-4-4-0"
       transform="matrix(1.8056786,0,0,1.8056786,309.82936,151.31201)">
      <path
         style="color:#000000;fill:#338000;fill-opacity:1;fill-rule:nonzero;stroke:none;stroke-width:3.64852309;marker:none;visibility:visible;display:inline;overflow:visible;enable-background:accumulate"
         d="m 255.03757,299.51529 c -7.76642,-0.091 -25.42888,-2.25516 -31.78751,5.99457 -11.66716,17.9673 -10.3827,27.44777 2.40017,47.36583 -14.15609,-61.87798 75.07297,-12.78271 29.38734,-53.3604 z"
         id="path3792-0-7-0-3-4"
         inkscape:connector-curvature="0"
         sodipodi:nodetypes="cccc" />
      <path
         style="color:#000000;fill:#338000;fill-opacity:1;fill-rule:nonzero;stroke:none;stroke-width:3.64852309;marker:none;visibility:visible;display:inline;overflow:visible;enable-background:accumulate"
         d="m 299.23272,306.88649 c 0.12742,3.27685 -0.66887,10.76316 4.05466,13.3011 10.23754,4.60747 15.46893,3.90073 26.22884,-1.83685 -34.01248,7.04723 -8.81309,-31.4373 -30.2835,-11.46425 z"
         id="path3792-0-7-5-2-45-1"
         inkscape:connector-curvature="0"
         sodipodi:nodetypes="cccc" />
    </g>
  </g>
</svg>
