o cloud
# Generated by Q3Map2 (ydnar) -convert -format obj
mtllib cloud.mtl
g mat3model0surf0
# SURFACETYPE MST_PLANAR
usemtl textures/sxb_v1_earth/nighttime_land_tower_top
# vertex 1
v 16.000000 14.250000 8.125000
vn 0.000000 0.970142 0.242536
vt 0.750000 0.069161
# vertex 2
v -16.000000 14.250000 8.125000
vn 0.000000 0.970142 0.242536
vt 1.250000 0.069161
# vertex 3
v 16.000000 14.625000 6.500000
vn 0.000000 0.970142 0.242536
vt 0.750000 0.043107
# vertex 4
v -16.000000 14.625000 6.500000
vn 0.000000 0.970142 0.242536
vt 1.250000 0.043107
f 1/1/1 3/3/3 2/2/2
f 3/3/3 4/4/4 2/2/2
g mat3model0surf1
# SURFACETYPE MST_PLANAR
# vertex 5
v -16.000000 15.000000 22.000000
vn 0.000000 0.936329 -0.351123
vt 1.250000 0.404158
# vertex 6
v -16.000000 12.625000 15.750000
vn 0.000000 0.936329 -0.351123
vt 1.250000 0.299689
# vertex 7
v 16.000000 15.000000 22.000000
vn 0.000000 0.936329 -0.351123
vt 0.750000 0.404158
# vertex 8
v 16.000000 12.625000 15.750000
vn 0.000000 0.936329 -0.351123
vt 0.750000 0.299689
f 5/5/5 7/7/7 6/6/6
f 7/7/7 8/8/8 6/6/6
g mat3model0surf2
# SURFACETYPE MST_PLANAR
# vertex 9
v 16.000000 12.625000 15.750000
vn 0.000000 0.554700 -0.832050
vt -0.250000 0.300643
# vertex 10
v -16.000000 10.000000 14.000000
vn 0.000000 0.554700 -0.832050
vt 0.250000 0.251349
# vertex 11
v 16.000000 10.000000 14.000000
vn 0.000000 0.554700 -0.832050
vt -0.250000 0.251348
# vertex 12
v -16.000000 12.625000 15.750000
vn 0.000000 0.554700 -0.832050
vt 0.250000 0.300643
f 9/9/9 11/11/11 10/10/10
f 12/12/12 9/9/9 10/10/10
g mat3model0surf3
# SURFACETYPE MST_PLANAR
# vertex 13
v 16.000000 10.000000 14.000000
vn 0.000000 0.813733 0.581238
vt -0.250000 0.087186
# vertex 14
v -16.000000 10.000000 14.000000
vn 0.000000 0.813733 0.581238
vt 0.250000 0.087186
# vertex 15
v 16.000000 14.250000 8.125000
vn 0.000000 0.813733 0.581238
vt -0.250000 -0.026110
# vertex 16
v -16.000000 14.250000 8.125000
vn 0.000000 0.813733 0.581238
vt 0.250000 -0.026110
f 13/13/13 15/15/15 14/14/14
f 15/15/15 16/16/16 14/14/14
g mat3model0surf4
# SURFACETYPE MST_PLANAR
# vertex 17
v -16.000000 14.625000 6.500000
vn 0.000000 0.759257 -0.650791
vt 0.250000 0.225828
# vertex 18
v -16.000000 9.000000 0.000000
vn 0.000000 0.759257 -0.650791
vt 0.250000 0.091518
# vertex 19
v 16.000000 14.625000 6.500000
vn 0.000000 0.759257 -0.650791
vt -0.250000 0.225828
# vertex 20
v 16.000000 9.000000 0.000000
vn 0.000000 0.759257 -0.650791
vt -0.250000 0.091518
f 17/17/17 19/19/19 18/18/18
f 19/19/19 20/20/20 18/18/18
g mat3model0surf5
# SURFACETYPE MST_PLANAR
# vertex 21
v 16.000000 15.000000 22.000000
vn 0.000000 0.707107 0.707107
vt -0.250000 0.077340
# vertex 22
v -16.000000 8.000000 29.000000
vn 0.000000 0.707107 0.707107
vt 0.250000 0.232019
# vertex 23
v -16.000000 15.000000 22.000000
vn 0.000000 0.707107 0.707107
vt 0.250000 0.077340
# vertex 24
v 16.000000 8.000000 29.000000
vn 0.000000 0.707107 0.707107
vt -0.250000 0.232019
f 21/21/21 23/23/23 22/22/22
f 24/24/24 21/21/21 22/22/22
g mat3model0surf6
# SURFACETYPE MST_PLANAR
# vertex 25
v -16.000000 9.000000 0.000000
vn 0.000000 0.000000 -1.000000
vt 0.140625 0.750000
# vertex 26
v -16.000000 8.000000 0.000000
vn 0.000000 0.000000 -1.000000
vt 0.125000 0.750000
# vertex 27
v 16.000000 9.000000 0.000000
vn 0.000000 0.000000 -1.000000
vt 0.140625 1.250000
# vertex 28
v 16.000000 8.000000 0.000000
vn 0.000000 0.000000 -1.000000
vt 0.125000 1.250000
# vertex 29
v -16.000000 -8.000000 0.000000
vn 0.000000 0.000000 -1.000000
vt -0.125000 0.750000
# vertex 30
v 16.000000 -8.000000 0.000000
vn 0.000000 0.000000 -1.000000
vt -0.125000 1.250000
# vertex 31
v -16.000000 -9.000000 0.000000
vn 0.000000 0.000000 -1.000000
vt -0.140625 0.750000
# vertex 32
v 16.000000 -9.000000 0.000000
vn 0.000000 0.000000 -1.000000
vt -0.140625 1.250000
f 26/26/26 28/28/28 29/29/29
f 28/28/28 30/30/30 29/29/29
f 26/26/26 27/27/27 28/28/28
f 29/29/29 30/30/30 31/31/31
f 25/25/25 27/27/27 26/26/26
f 30/30/30 32/32/32 31/31/31
g mat3model0surf7
# SURFACETYPE MST_PLANAR
# vertex 33
v 16.000000 8.000000 29.000000
vn 0.000000 0.000000 1.000000
vt 0.125000 0.750000
# vertex 34
v -16.000000 -8.000000 29.000000
vn 0.000000 0.000000 1.000000
vt -0.125000 1.250000
# vertex 35
v -16.000000 8.000000 29.000000
vn 0.000000 0.000000 1.000000
vt 0.125000 1.250000
# vertex 36
v 16.000000 -8.000000 29.000000
vn 0.000000 0.000000 1.000000
vt -0.125000 0.750000
f 33/33/33 35/35/35 34/34/34
f 36/36/36 33/33/33 34/34/34
g mat3model0surf8
# SURFACETYPE MST_PLANAR
# vertex 37
v 16.000000 -10.000000 14.000000
vn 0.000000 -0.554700 -0.832050
vt 0.250000 0.251348
# vertex 38
v -16.000000 -12.625000 15.750000
vn 0.000000 -0.554700 -0.832050
vt -0.250000 0.300643
# vertex 39
v 16.000000 -12.625000 15.750000
vn 0.000000 -0.554700 -0.832050
vt 0.250000 0.300643
# vertex 40
v -16.000000 -10.000000 14.000000
vn 0.000000 -0.554700 -0.832050
vt -0.250000 0.251349
f 37/37/37 39/39/39 38/38/38
f 40/40/40 37/37/37 38/38/38
g mat3model0surf9
# SURFACETYPE MST_PLANAR
# vertex 41
v 16.000000 -10.000000 14.000000
vn 0.000000 -0.813733 0.581238
vt 0.250000 0.087186
# vertex 42
v -16.000000 -14.250000 8.125000
vn 0.000000 -0.813733 0.581238
vt -0.250000 -0.026110
# vertex 43
v -16.000000 -10.000000 14.000000
vn 0.000000 -0.813733 0.581238
vt -0.250000 0.087186
# vertex 44
v 16.000000 -14.250000 8.125000
vn 0.000000 -0.813733 0.581238
vt 0.250000 -0.026110
f 41/41/41 43/43/43 42/42/42
f 44/44/44 41/41/41 42/42/42
g mat3model0surf10
# SURFACETYPE MST_PLANAR
# vertex 45
v 16.000000 -14.250000 8.125000
vn 0.000000 -0.970142 0.242536
vt 0.250000 0.069161
# vertex 46
v -16.000000 -14.625000 6.500000
vn 0.000000 -0.970142 0.242536
vt -0.250000 0.043107
# vertex 47
v -16.000000 -14.250000 8.125000
vn 0.000000 -0.970142 0.242536
vt -0.250000 0.069161
# vertex 48
v 16.000000 -14.625000 6.500000
vn 0.000000 -0.970142 0.242536
vt 0.250000 0.043107
f 45/45/45 47/47/47 46/46/46
f 48/48/48 45/45/45 46/46/46
g mat3model0surf11
# SURFACETYPE MST_PLANAR
# vertex 49
v -16.000000 -9.000000 0.000000
vn 0.000000 -0.759257 -0.650791
vt -0.250000 0.091518
# vertex 50
v -16.000000 -14.625000 6.500000
vn 0.000000 -0.759257 -0.650791
vt -0.250000 0.225828
# vertex 51
v 16.000000 -9.000000 0.000000
vn 0.000000 -0.759257 -0.650791
vt 0.250000 0.091518
# vertex 52
v 16.000000 -14.625000 6.500000
vn 0.000000 -0.759257 -0.650791
vt 0.250000 0.225828
f 49/49/49 51/51/51 50/50/50
f 51/51/51 52/52/52 50/50/50
g mat3model0surf12
# SURFACETYPE MST_PLANAR
# vertex 53
v 16.000000 -8.000000 29.000000
vn 0.000000 -0.707107 0.707107
vt 0.250000 0.232019
# vertex 54
v -16.000000 -15.000000 22.000000
vn 0.000000 -0.707107 0.707107
vt -0.250000 0.077340
# vertex 55
v -16.000000 -8.000000 29.000000
vn 0.000000 -0.707107 0.707107
vt -0.250000 0.232019
# vertex 56
v 16.000000 -15.000000 22.000000
vn 0.000000 -0.707107 0.707107
vt 0.250000 0.077340
f 53/53/53 55/55/55 54/54/54
f 56/56/56 53/53/53 54/54/54
g mat3model0surf13
# SURFACETYPE MST_PLANAR
# vertex 57
v 16.000000 -12.625000 15.750000
vn 0.000000 -0.936329 -0.351123
vt 0.250000 0.299689
# vertex 58
v -16.000000 -15.000000 22.000000
vn 0.000000 -0.936329 -0.351123
vt -0.250000 0.404158
# vertex 59
v 16.000000 -15.000000 22.000000
vn 0.000000 -0.936329 -0.351123
vt 0.250000 0.404158
# vertex 60
v -16.000000 -12.625000 15.750000
vn 0.000000 -0.936329 -0.351123
vt -0.250000 0.299689
f 57/57/57 59/59/59 58/58/58
f 60/60/60 57/57/57 58/58/58
g mat0model0surf14
# SURFACETYPE MST_PLANAR
usemtl textures/sxb_v1_platforms/coin_heaven_clouds
# vertex 61
v 16.000000 12.625000 15.750000
vn 1.000000 0.000000 0.000000
vt 0.931992 0.538923
# vertex 62
v 16.000000 8.000000 29.000000
vn 1.000000 0.000000 0.000000
vt 0.773743 0.992303
# vertex 63
v 16.000000 15.000000 22.000000
vn 1.000000 0.000000 0.000000
vt 1.013245 0.752781
# vertex 64
v 16.000000 8.000000 14.000000
vn 1.000000 0.000000 0.000000
vt 0.773743 0.479043
# vertex 65
v 16.000000 10.000000 14.000000
vn 1.000000 0.000000 0.000000
vt 0.842178 0.479043
# vertex 66
v 16.000000 -8.000000 14.000000
vn 1.000000 0.000000 0.000000
vt 0.226257 0.479043
# vertex 67
v 16.000000 -8.000000 29.000000
vn 1.000000 0.000000 0.000000
vt 0.226257 0.992303
# vertex 68
v 16.000000 -8.000000 0.000000
vn 1.000000 0.000000 0.000000
vt 0.226257 0.000000
# vertex 69
v 16.000000 14.250000 8.125000
vn 1.000000 0.000000 0.000000
vt 0.987595 0.278016
# vertex 70
v 16.000000 14.625000 6.500000
vn 1.000000 0.000000 0.000000
vt 1.000427 0.222413
# vertex 71
v 16.000000 8.000000 0.000000
vn 1.000000 0.000000 0.000000
vt 0.773743 0.000000
# vertex 72
v 16.000000 9.000000 0.000000
vn 1.000000 0.000000 0.000000
vt 0.807953 0.000000
# vertex 73
v 16.000000 -10.000000 14.000000
vn 1.000000 0.000000 0.000000
vt 0.157822 0.479043
# vertex 74
v 16.000000 -14.250000 8.125000
vn 1.000000 0.000000 0.000000
vt 0.012405 0.278016
# vertex 75
v 16.000000 -14.625000 6.500000
vn 1.000000 0.000000 0.000000
vt -0.000427 0.222413
# vertex 76
v 16.000000 -9.000000 0.000000
vn 1.000000 0.000000 0.000000
vt 0.192047 0.000000
# vertex 77
v 16.000000 -15.000000 22.000000
vn 1.000000 0.000000 0.000000
vt -0.013260 0.752781
# vertex 78
v 16.000000 -12.625000 15.750000
vn 1.000000 0.000000 0.000000
vt 0.068008 0.538923
f 61/61/61 62/62/62 64/64/64
f 62/62/62 66/66/66 64/64/64
f 61/61/61 63/63/63 62/62/62
f 61/61/61 64/64/64 65/65/65
f 62/62/62 67/67/67 66/66/66
f 64/64/64 66/66/66 68/68/68
f 64/64/64 69/69/69 65/65/65
f 64/64/64 70/70/70 69/69/69
f 64/64/64 71/71/71 70/70/70
f 64/64/64 68/68/68 71/71/71
f 70/70/70 71/71/71 72/72/72
f 66/66/66 74/74/74 68/68/68
f 66/66/66 73/73/73 74/74/74
f 66/66/66 67/67/67 73/73/73
f 68/68/68 74/74/74 75/75/75
f 68/68/68 75/75/75 76/76/76
f 67/67/67 77/77/77 73/73/73
f 73/73/73 77/77/77 78/78/78
g mat0model0surf15
# SURFACETYPE MST_PLANAR
# vertex 79
v -16.000000 15.000000 22.000000
vn -1.000000 0.000000 0.000000
vt -0.013260 0.752781
# vertex 80
v -16.000000 10.000000 14.000000
vn -1.000000 0.000000 0.000000
vt 0.157822 0.479043
# vertex 81
v -16.000000 12.625000 15.750000
vn -1.000000 0.000000 0.000000
vt 0.068008 0.538923
# vertex 82
v -16.000000 8.000000 14.000000
vn -1.000000 0.000000 0.000000
vt 0.226257 0.479043
# vertex 83
v -16.000000 8.000000 29.000000
vn -1.000000 0.000000 0.000000
vt 0.226257 0.992303
# vertex 84
v -16.000000 -8.000000 14.000000
vn -1.000000 0.000000 0.000000
vt 0.773743 0.479043
# vertex 85
v -16.000000 -8.000000 29.000000
vn -1.000000 0.000000 0.000000
vt 0.773743 0.992303
# vertex 86
v -16.000000 -8.000000 0.000000
vn -1.000000 0.000000 0.000000
vt 0.773743 0.000000
# vertex 87
v -16.000000 8.000000 0.000000
vn -1.000000 0.000000 0.000000
vt 0.226257 0.000000
# vertex 88
v -16.000000 9.000000 0.000000
vn -1.000000 0.000000 0.000000
vt 0.192047 0.000000
# vertex 89
v -16.000000 -9.000000 0.000000
vn -1.000000 0.000000 0.000000
vt 0.807953 0.000000
# vertex 90
v -16.000000 14.250000 8.125000
vn -1.000000 0.000000 0.000000
vt 0.012405 0.278016
# vertex 91
v -16.000000 14.625000 6.500000
vn -1.000000 0.000000 0.000000
vt -0.000427 0.222413
# vertex 92
v -16.000000 -10.000000 14.000000
vn -1.000000 0.000000 0.000000
vt 0.842178 0.479043
# vertex 93
v -16.000000 -12.625000 15.750000
vn -1.000000 0.000000 0.000000
vt 0.931992 0.538923
# vertex 94
v -16.000000 -14.625000 6.500000
vn -1.000000 0.000000 0.000000
vt 1.000427 0.222413
# vertex 95
v -16.000000 -14.250000 8.125000
vn -1.000000 0.000000 0.000000
vt 0.987595 0.278016
# vertex 96
v -16.000000 -15.000000 22.000000
vn -1.000000 0.000000 0.000000
vt 1.013245 0.752781
f 79/79/79 82/82/82 83/83/83
f 82/82/82 84/84/84 83/83/83
f 79/79/79 80/80/80 82/82/82
f 83/83/83 84/84/84 85/85/85
f 79/79/79 81/81/81 80/80/80
f 82/82/82 86/86/86 84/84/84
f 80/80/80 87/87/87 82/82/82
f 80/80/80 88/88/88 87/87/87
f 82/82/82 87/87/87 86/86/86
f 80/80/80 90/90/90 88/88/88
f 84/84/84 86/86/86 89/89/89
f 88/88/88 90/90/90 91/91/91
f 84/84/84 89/89/89 92/92/92
f 84/84/84 92/92/92 93/93/93
f 89/89/89 94/94/94 92/92/92
f 92/92/92 94/94/94 95/95/95
f 84/84/84 93/93/93 96/96/96
f 84/84/84 96/96/96 85/85/85
